#N canvas 95 98 565 604 12;
#X obj 33 261 print EXT;
#X msg 34 95 getattributes;
#X text 229 177 delete attribute;
#X msg 149 147 set attr1 huhu haha;
#X msg 150 174 set attr1;
#X msg 64 147 get attr1;
#X text 153 249 loadbang priority 3 ... comes later;
#X text 136 379 loadbang priority 1 ... comes sooner;
#X text 117 454 no loadbang priority given... default = 0;
#X text 155 275 \$0 represents the parent patch;
#X text 156 292 (used for grouping loadbang priorities);
#X text 232 435 internal attr2 is deleted;
#X obj 32 522 absattr-no arg1 arg2;
#X text 113 546 loadbang disabled inside;
#X obj 33 218 absattr-sub 1 2 3 @loadbang \$0 3 @attr1 hey ho;
#X obj 30 434 absattr-sub abs1 @attr2;
#X obj 33 352 absattr-sub a b c @loadbang \$0 1 @me and you;
#X obj 31 22 cnv 15 500 45 empty empty absattr 10 22 0 24 -260818 -1
0;
#X text 200 43 http://grrrr.org;
#X text 200 23 patcher attributes \, (C)2005-2008 Thomas Grill;
#X connect 1 0 14 0;
#X connect 3 0 14 0;
#X connect 4 0 14 0;
#X connect 5 0 14 0;
#X connect 14 0 0 0;
